PathFileType	4	(X/Y/Z)	C:\Users\WrightLab\Desktop\Jo\P5V29.trc
DataRate	CameraRate	NumFrames	NumMarkers	Units	OrigDataRate	OrigDataStartFrame	OrigNumFrames
100.00	100.00	       19	19	mm	100.00	285	       759
Frame#	Time	Headset_Front			Headset_Back			Headset_Left			Headset_Right			Left_Shoulder			Right_Shoulder			Sternum			C7			Left Elbow			Right Elbow			Left Wrist			Right Wrist			Left ASIS			Right ASIS			S2			Left Knee			Right Knee			Left Ankle			Right Ankle			
		X1	Y1	Z1	X2	Y2	Z2	X3	Y3	Z3	X4	Y4	Z4	X5	Y5	Z5	X6	Y6	Z6	X7	Y7	Z7	X8	Y8	Z8	X9	Y9	Z9	X10	Y10	Z10	X11	Y11	Z11	X12	Y12	Z12	X13	Y13	Z13	X14	Y14	Z14	X15	Y15	Z15	X16	Y16	Z16	X17	Y17	Z17	X18	Y18	Z18	X19	Y19	Z19	

285	2.840	-199.75734	1455.01892	-451.51349				-114.97643	1592.60205	-586.28192				-52.30332	1477.49329	-742.60632	-446.95703	1419.40173	-633.58679	-237.70525	1283.99304	-619.81567	-295.11832	1502.57593	-801.18018	25.66446	1186.83264	-788.15259	-575.33466	1160.33557	-660.74866	1.41905	949.36108	-701.21912	-558.89294	1022.22687	-464.49237	-93.26614	901.64233	-642.51270	-373.90048	909.00507	-608.89490	-240.20866	953.73285	-880.66553	-98.80653	485.97638	-582.57672	-410.03949	469.56543	-722.21497	-124.61571	83.02024	-487.26187	-347.09421	87.67661	-916.31879	
286	2.850	-198.98157	1453.59778	-443.82391				-113.71100	1591.63672	-578.95624				-50.85175	1476.28967	-735.51831	-445.46466	1418.43506	-626.86139	-236.90443	1282.32788	-614.48682	-293.60013	1501.25330	-794.36981	28.13817	1186.33447	-781.50391	-573.86908	1159.49402	-653.36688	2.92616	947.64215	-694.25275	-557.89020	1021.88580	-456.05856	-92.96115	900.95551	-634.74042	-372.83023	908.56122	-599.50305	-239.02893	952.44855	-872.89050	-98.73318	484.81226	-574.67108	-409.33417	469.35666	-715.58228	-126.18226	80.93451	-485.97375	-346.92474	89.34148	-914.77679	
287	2.860	-196.94888	1454.35474	-436.75891				-112.55833	1591.04773	-571.98157				-49.39190	1475.24060	-729.05798	-444.18549	1417.16333	-620.27362	-235.21465	1282.37280	-604.88971	-292.10489	1499.79248	-787.78406	30.09175	1184.66614	-774.94928	-573.24048	1159.13208	-645.67761	3.72070	947.07361	-687.70953	-557.37494	1021.76660	-448.54797	-91.32585	900.29565	-625.33997	-372.29224	907.11938	-591.05359	-237.64314	950.57056	-864.33405	-99.73954	482.55698	-567.16858	-407.78461	468.03625	-707.89117	-127.24856	80.05772	-483.92377	-346.71313	90.10214	-913.85132	
288	2.870	-196.09781	1453.79443	-427.81027				-111.38277	1590.28674	-565.41962				-47.64370	1473.87817	-721.41266	-442.97348	1416.90930	-613.31799	-234.39711	1281.35547	-596.11346	-290.41302	1498.72131	-781.19171	31.97118	1183.98315	-768.25739	-572.05981	1158.40710	-638.23932	4.72228	944.98779	-680.62622	-558.16351	1021.22900	-440.16663	-91.12632	899.25049	-616.77740	-371.43735	907.28973	-583.36560	-235.83197	948.65076	-855.40912	-100.18281	480.97675	-559.04480	-406.17032	465.74478	-700.42175	-128.71661	80.30347	-480.52698	-347.20151	91.71721	-912.06653	
289	2.880	-195.64465	1453.59119	-422.41980				-110.12162	1589.88245	-557.88312				-45.89331	1472.95581	-713.61908	-440.85669	1415.08606	-606.38599	-232.24203	1281.29492	-589.16187	-288.80197	1497.87341	-774.64154	33.68195	1181.76489	-759.48694	-571.08942	1158.08215	-630.18158	6.90367	945.01099	-673.34277	-556.86499	1021.26074	-432.72302	-89.68126	898.77411	-607.27155	-370.53525	906.57831	-574.26257	-234.50031	947.84058	-847.27350	-98.92642	480.17566	-550.69836	-406.02457	465.52689	-692.48663	-130.08731	80.05643	-476.48593	-346.94504	94.24259	-910.00128	
290	2.890	-194.64635	1453.31335	-415.67245				-108.91743	1589.72168	-550.90857				-44.49001	1472.58923	-707.30975	-440.33737	1415.41406	-600.24774	-231.51414	1280.43103	-581.62030	-287.08560	1497.41345	-767.52106	34.78150	1180.71228	-751.98914	-570.38953	1157.27454	-622.63336	8.45398	942.89136	-665.11029	-557.51233	1021.25983	-424.15485	-89.62585	897.66357	-598.55115	-370.04642	905.82690	-565.42786	-232.83423	946.35040	-839.19183	-99.02041	478.01199	-542.96875	-404.37457	463.14615	-683.83197	-131.15230	80.30450	-474.12573	-346.87152	96.04034	-908.10846	
291	2.900	-193.13818	1454.11633	-407.70007				-107.55798	1589.24561	-542.80359				-43.00665	1472.15320	-700.17108	-438.97583	1415.61121	-594.46100	-230.05650	1280.49353	-574.80798	-285.42819	1497.17725	-760.62799	36.66449	1181.03345	-743.67932	-569.44391	1157.29517	-614.74316	10.35384	942.92145	-658.03967	-557.49506	1021.32098	-416.82635	-88.22572	897.81158	-590.27643	-369.33273	905.47339	-556.88617	-231.29771	945.64020	-830.96082	-99.24562	476.84018	-534.15332	-403.60565	462.03882	-675.88336	-132.34032	80.17903	-473.36981	-346.81412	98.60788	-906.29834	
292	2.910	-192.30087	1453.79614	-399.34399				-106.36353	1589.53052	-535.23584				-41.08553	1471.88098	-692.14465	-437.21954	1414.69592	-587.27325	-227.79698	1281.48889	-566.56561	-283.77649	1497.53650	-753.95117	36.78272	1181.00659	-737.30835	-568.12250	1157.77197	-608.12274	10.70895	941.66925	-650.93085	-558.16718	1021.42725	-408.62070	-86.96023	898.40894	-581.51202	-367.85406	905.56256	-547.89886	-229.48965	946.10175	-823.82526	-96.78497	478.20706	-526.98511	-402.10004	460.57935	-666.19293	-132.77504	80.24210	-472.71759	-347.28241	102.08801	-902.60211	
293	2.920	-192.30322	1453.87830	-391.14810				-105.32752	1589.59680	-527.82104				-39.91576	1472.21423	-684.71826	-435.48734	1415.25476	-580.25684	-227.70454	1282.22681	-559.17004	-282.18668	1497.87708	-747.00623	39.02328	1181.34949	-728.03430	-566.99756	1158.35461	-599.93896	12.35747	941.35852	-643.71985	-558.26172	1021.78973	-401.12311	-86.60601	899.04187	-572.45868	-366.42679	905.66425	-540.50098	-227.36249	946.41412	-816.11823	-95.63781	479.97943	-519.69299	-400.81097	460.19766	-657.67084	-133.11356	80.68652	-471.44116	-347.85898	106.01325	-899.02399	
294	2.930	-192.91826	1454.77161	-384.52359				-104.13056	1589.59229	-519.58972				-38.96210	1472.81616	-677.67157	-434.01093	1416.37927	-573.66449	-225.11377	1283.27112	-549.18994	-280.77808	1498.39856	-739.99170	39.55183	1181.39771	-719.57928	-565.07928	1158.93750	-591.62195	13.16416	940.73694	-636.29950	-558.48859	1022.90771	-393.71249	-84.60964	899.97412	-564.29932	-364.66116	906.14404	-531.74658	-225.76857	946.55072	-807.86737	-94.24660	482.19797	-512.73370	-400.35220	460.30057	-647.78143	-132.34122	80.74726	-469.64865	-347.14334	110.95576	-894.56689	
295	2.940	-193.39667	1453.61426	-379.86923				-103.31937	1589.78906	-511.78903				-37.75310	1473.56311	-670.25348	-432.49240	1417.50623	-566.71381	-224.52097	1283.92615	-542.91168	-278.64978	1498.61279	-733.15253	40.71719	1182.02356	-711.43036	-563.53772	1159.87463	-584.21399	13.67911	941.63409	-628.45001	-557.94012	1022.17554	-385.87213	-84.11822	901.00104	-557.14362	-363.49118	907.53778	-523.42578	-223.82744	947.36682	-800.49615	-93.29722	483.91602	-505.06393	-399.16638	460.22607	-636.77106	-132.50639	80.64053	-469.35898	-347.01358	115.77806	-890.67957	
296	2.950	-192.83286	1453.71387	-372.08951				-102.46648	1590.04187	-503.97208				-36.43412	1475.10535	-662.77271	-431.31396	1418.68909	-559.62726	-221.97644	1285.11279	-533.97571	-277.98599	1499.97668	-726.69727	41.57754	1183.36011	-704.05872	-562.42682	1161.28918	-575.78516	16.19434	942.54303	-620.00970	-558.81958	1022.75031	-378.04529	-82.41326	902.12311	-549.22449	-361.53418	908.84833	-516.21100	-221.99113	948.86938	-793.27856	-93.34633	484.57852	-498.38522	-399.03250	461.77667	-625.98047	-132.35913	80.58567	-469.22000	-346.81494	121.87035	-885.09467	
297	2.960	-193.67278	1455.05103	-363.36938				-101.76185	1590.77258	-496.06595				-35.02660	1476.89612	-655.32697	-429.77029	1419.96191	-553.28601	-221.50319	1286.84900	-528.50122	-276.43539	1501.14417	-719.86737	42.67072	1184.84656	-694.99591	-561.36963	1162.59705	-569.03418	16.42782	942.61285	-613.14355	-559.87225	1023.25372	-369.38776	-82.41079	903.84900	-541.08759	-359.94772	910.14618	-507.54581	-220.20836	949.58728	-785.80237	-91.73033	485.98901	-491.15213	-397.11688	463.08539	-614.86127	-132.35165	80.64503	-469.17963	-346.85837	128.48019	-878.64398	
298	2.970	-194.25789	1455.15955	-357.56610				-101.27818	1591.27930	-488.11230				-34.10150	1478.21497	-648.31537	-430.35324	1422.17334	-547.84296	-219.53926	1288.82007	-520.46350	-274.88980	1501.96643	-713.02734	42.48751	1185.14221	-686.02020	-560.63617	1163.82776	-561.36945	17.34060	943.50195	-605.37793	-560.42926	1024.41992	-362.74918	-81.28029	905.61255	-533.94586	-359.62125	912.40735	-500.39215	-218.55960	950.88171	-778.81024	-88.89283	487.44949	-484.62933	-395.79602	464.91937	-603.26202	-132.38333	80.66646	-469.15750	-348.16718	134.34480	-870.88470	
299	2.980	-196.46324	1454.05835	-351.09241				-100.84274	1591.78650	-480.51074				-33.01153	1479.33984	-640.39331	-430.57916	1423.31689	-541.17950	-218.87619	1289.89453	-513.19196	-273.97354	1503.21472	-706.38513	43.46072	1186.75415	-678.34399	-560.01837	1165.24658	-554.42609	18.06524	944.68085	-598.02014	-560.09491	1025.18127	-355.69254	-80.86986	906.84546	-526.72766	-358.43448	914.91406	-493.37085	-216.88614	951.96887	-771.32196	-87.23669	487.89822	-478.24039	-394.90298	466.91083	-590.39557	-132.51926	80.88403	-469.04474	-351.44849	144.57082	-861.44629	
300	2.990	-197.41547	1454.15906	-345.76086				-100.58319	1592.16748	-471.92242	-315.76068	1547.97363	-386.64688	-32.19529	1481.00183	-633.45172	-429.03723	1424.93665	-534.32416	-218.27354	1291.56238	-506.24460	-272.46942	1504.52783	-699.79492	43.51578	1187.72107	-670.83307	-559.21368	1166.52820	-546.66919	19.04269	945.72925	-590.26172	-561.92340	1025.97058	-347.69720	-80.99763	908.04651	-519.77423	-357.53818	916.65601	-487.01416	-215.10219	953.08606	-763.64624	-84.93133	488.35147	-471.86020	-394.25726	469.03265	-578.95062	-132.79475	80.79015	-468.90302	-352.95602	150.87517	-850.59589	
301	3.000	-199.35374	1455.64673	-340.17215				-100.43714	1592.34363	-464.42722	-315.65756	1548.50891	-380.71484	-30.91092	1482.47607	-625.93005	-428.11630	1425.82849	-527.53033	-216.96310	1292.54712	-497.49814	-271.51907	1505.30566	-692.81738	44.44711	1189.09448	-662.69537	-558.46503	1167.40186	-538.68311	19.45976	946.50262	-582.56848	-561.65680	1026.67188	-339.31833	-80.02305	909.77509	-512.73828	-356.70529	918.47784	-480.23932	-213.50531	954.10455	-756.31201	-84.93216	488.67059	-467.19196	-392.42111	470.15195	-565.76056	-133.08188	80.76311	-468.43845	-356.17697	158.85974	-840.10529	
302	3.010	-200.46400	1455.67419	-332.68723				-100.48302	1592.30115	-456.70746	-315.81186	1549.05835	-374.50668	-30.34215	1483.84119	-618.38446	-427.63181	1427.05359	-521.85413	-216.08478	1293.97083	-492.62827	-270.66931	1506.47839	-686.22119	44.58428	1188.42505	-655.98059	-557.44678	1168.70789	-531.59589	19.57330	946.89044	-574.51312	-563.31409	1027.48425	-331.52869	-78.77797	910.80200	-505.69794	-355.62042	919.73871	-473.67633	-211.83907	955.05255	-749.35339	-81.00742	490.26547	-461.51425	-390.88193	472.01486	-552.96381	-133.31291	80.79452	-468.28467	-357.74295	166.66417	-829.01788	
303	3.020	-203.21826	1456.06372	-326.17999				-100.53777	1592.28040	-448.23611	-316.02029	1549.69397	-368.27219	-29.35632	1484.68396	-610.84442	-426.61746	1427.69324	-515.83057	-217.14680	1293.92749	-488.44073	-269.80859	1507.54199	-680.23053	47.27678	1190.94641	-647.43390	-557.13806	1169.37061	-523.20648	20.64719	948.77472	-565.67267	-565.08502	1029.13171	-324.52927	-78.09056	912.21021	-498.98541	-355.82690	920.72870	-467.55014	-210.10484	956.21832	-742.22156	-78.75451	491.00586	-457.28757	-389.32620	473.13010	-539.98785	-133.39189	80.74593	-467.90039	-358.85730	174.78470	-818.53510	
